<mxfile host="app.diagrams.net" modified="2023-09-18T13:39:15.182Z" agent="Mozilla/5.0 (Macintosh; Intel Mac OS X 10_15_7) AppleWebKit/605.1.15 (KHTML, like Gecko) Version/16.4 Safari/605.1.15" etag="5eWF3yS2nEr8SK7BAqxO" version="21.7.2" type="device">
  <diagram name="Page-1" id="AsP60JgBl1jaJY_T1ypP">
    <mxGraphModel dx="1194" dy="509" grid="1" gridSize="10" guides="1" tooltips="1" connect="1" arrows="1" fold="1" page="1" pageScale="1" pageWidth="827" pageHeight="1169" math="0" shadow="0">
      <root>
        <mxCell id="0" />
        <mxCell id="1" parent="0" />
        <mxCell id="Z3GVn9q660Q-xpyVM-ZC-12" value="" style="whiteSpace=wrap;html=1;aspect=fixed;fillColor=#FFFFFF;strokeColor=#1A1A1A;dashed=1;strokeWidth=2;" parent="1" vertex="1">
          <mxGeometry x="450" y="110" width="310" height="310" as="geometry" />
        </mxCell>
        <mxCell id="S4ye47c-eQ2FClUaUVk9-22" value="" style="endArrow=none;html=1;exitX=0.567;exitY=0.983;exitDx=0;exitDy=0;exitPerimeter=0;entryX=1;entryY=0.5;entryDx=0;entryDy=0;entryPerimeter=0;strokeWidth=2;endFill=0;jumpStyle=none;strokeColor=default;curved=1;" parent="1" edge="1">
          <mxGeometry width="50" height="50" relative="1" as="geometry">
            <mxPoint x="668.04" y="313.98" as="sourcePoint" />
            <mxPoint x="585" y="355" as="targetPoint" />
            <Array as="points">
              <mxPoint x="680" y="355" />
            </Array>
          </mxGeometry>
        </mxCell>
        <mxCell id="S4ye47c-eQ2FClUaUVk9-23" value="" style="endArrow=none;html=1;exitX=1;exitY=1;exitDx=0;exitDy=0;strokeWidth=2;endFill=0;curved=1;entryX=1;entryY=0.5;entryDx=0;entryDy=0;entryPerimeter=0;" parent="1" edge="1">
          <mxGeometry width="50" height="50" relative="1" as="geometry">
            <mxPoint x="732.426406871193" y="266.2132034355965" as="sourcePoint" />
            <mxPoint x="585" y="355" as="targetPoint" />
            <Array as="points">
              <mxPoint x="740" y="325" />
              <mxPoint x="680" y="350" />
            </Array>
          </mxGeometry>
        </mxCell>
        <mxCell id="S4ye47c-eQ2FClUaUVk9-39" value="Local Drone Control" style="text;html=1;strokeColor=none;fillColor=none;align=left;verticalAlign=middle;whiteSpace=wrap;rounded=0;fontSize=16;" parent="1" vertex="1">
          <mxGeometry x="450" y="80" width="200" height="30" as="geometry" />
        </mxCell>
        <mxCell id="hJmBEfNaNkhOMWLSrZkB-1" value="" style="endArrow=none;html=1;rounded=0;strokeWidth=2;endFill=0;startArrow=none;startFill=0;strokeColor=#67AB9F;" parent="1" edge="1">
          <mxGeometry width="50" height="50" relative="1" as="geometry">
            <mxPoint x="410" y="250" as="sourcePoint" />
            <mxPoint x="470" y="250" as="targetPoint" />
          </mxGeometry>
        </mxCell>
        <mxCell id="hJmBEfNaNkhOMWLSrZkB-3" value="" style="endArrow=none;html=1;rounded=0;strokeWidth=2;" parent="1" edge="1">
          <mxGeometry width="50" height="50" relative="1" as="geometry">
            <mxPoint x="470" y="250" as="sourcePoint" />
            <mxPoint x="630.0618875873843" y="246.36222982755953" as="targetPoint" />
          </mxGeometry>
        </mxCell>
        <mxCell id="hJmBEfNaNkhOMWLSrZkB-4" value="" style="endArrow=none;html=1;rounded=0;strokeWidth=2;" parent="1" edge="1">
          <mxGeometry width="50" height="50" relative="1" as="geometry">
            <mxPoint x="470" y="250" as="sourcePoint" />
            <mxPoint x="603.6994129909735" y="274.6288392351794" as="targetPoint" />
          </mxGeometry>
        </mxCell>
        <mxCell id="hJmBEfNaNkhOMWLSrZkB-7" value="gRPC" style="text;html=1;strokeColor=none;fillColor=none;align=left;verticalAlign=middle;whiteSpace=wrap;rounded=0;fontSize=12;" parent="1" vertex="1">
          <mxGeometry x="379" y="210" width="50" height="30" as="geometry" />
        </mxCell>
        <mxCell id="9ljtL4uPzqKEoFyuyvBv-35" value="drone1" style="ellipse;whiteSpace=wrap;html=1;fillColor=#99CCFF;strokeColor=#7EA6E0;fontColor=#000000;" vertex="1" parent="1">
          <mxGeometry x="628" y="213" width="120" height="60" as="geometry" />
        </mxCell>
        <mxCell id="9ljtL4uPzqKEoFyuyvBv-36" value="drone2" style="ellipse;whiteSpace=wrap;html=1;fillColor=#99CCFF;strokeColor=#7EA6E0;fontColor=#000000;" vertex="1" parent="1">
          <mxGeometry x="600" y="250" width="120" height="60" as="geometry" />
        </mxCell>
        <mxCell id="9ljtL4uPzqKEoFyuyvBv-37" value="" style="ellipse;whiteSpace=wrap;html=1;aspect=fixed;strokeColor=#67AB9F;fillColor=#67AB9F;" vertex="1" parent="1">
          <mxGeometry x="394" y="240" width="20" height="20" as="geometry" />
        </mxCell>
        <mxCell id="9ljtL4uPzqKEoFyuyvBv-39" value="" style="group" vertex="1" connectable="0" parent="1">
          <mxGeometry x="509.25" y="320" width="77" height="60" as="geometry" />
        </mxCell>
        <mxCell id="9ljtL4uPzqKEoFyuyvBv-40" value="" style="ellipse;whiteSpace=wrap;html=1;fillColor=#15a9ce;strokeColor=#FFFFFF;strokeWidth=2;" vertex="1" parent="9ljtL4uPzqKEoFyuyvBv-39">
          <mxGeometry y="40" width="77" height="20" as="geometry" />
        </mxCell>
        <mxCell id="9ljtL4uPzqKEoFyuyvBv-41" value="" style="ellipse;whiteSpace=wrap;html=1;fillColor=#15a9ce;strokeColor=#FFFFFF;strokeWidth=2;" vertex="1" parent="9ljtL4uPzqKEoFyuyvBv-39">
          <mxGeometry y="32" width="77" height="20" as="geometry" />
        </mxCell>
        <mxCell id="9ljtL4uPzqKEoFyuyvBv-42" value="" style="ellipse;whiteSpace=wrap;html=1;fillColor=#15a9ce;strokeColor=#FFFFFF;strokeWidth=2;" vertex="1" parent="9ljtL4uPzqKEoFyuyvBv-39">
          <mxGeometry y="24" width="77" height="20" as="geometry" />
        </mxCell>
        <mxCell id="9ljtL4uPzqKEoFyuyvBv-43" value="" style="ellipse;whiteSpace=wrap;html=1;fillColor=#15a9ce;strokeColor=#FFFFFF;strokeWidth=2;" vertex="1" parent="9ljtL4uPzqKEoFyuyvBv-39">
          <mxGeometry y="16" width="77" height="20" as="geometry" />
        </mxCell>
        <mxCell id="9ljtL4uPzqKEoFyuyvBv-44" value="" style="ellipse;whiteSpace=wrap;html=1;fillColor=#15a9ce;strokeColor=#FFFFFF;strokeWidth=2;" vertex="1" parent="9ljtL4uPzqKEoFyuyvBv-39">
          <mxGeometry y="8" width="77" height="20" as="geometry" />
        </mxCell>
        <mxCell id="9ljtL4uPzqKEoFyuyvBv-45" value="" style="ellipse;whiteSpace=wrap;html=1;fillColor=#15a9ce;strokeColor=#FFFFFF;strokeWidth=2;" vertex="1" parent="9ljtL4uPzqKEoFyuyvBv-39">
          <mxGeometry width="77" height="20" as="geometry" />
        </mxCell>
        <mxCell id="9ljtL4uPzqKEoFyuyvBv-46" value="event journal (H2)" style="text;html=1;strokeColor=none;fillColor=none;align=center;verticalAlign=middle;whiteSpace=wrap;rounded=0;" vertex="1" parent="1">
          <mxGeometry x="500" y="380" width="100" height="30" as="geometry" />
        </mxCell>
      </root>
    </mxGraphModel>
  </diagram>
</mxfile>
